{"title":"Straight Outta Compton 2015 CAM XviD-INFERNO","uid":12240635,"size":1758324416,"categoryP":"video","categoryS":"movies","magnet":"?xt=urn:btih:d9f97b954a8a77ae7929e57899a86046384b04da&amp;dn=Straight+Outta+Compton+2015+CAM+XviD-INFERNO&amp;tr=udp%3A%2F%2Ftracker.openbittorrent.com%3A80&amp;tr=udp%3A%2F%2Fopen.demonii.com%3A1337&amp;tr=udp%3A%2F%2Ftracker.coppersurfer.tk%3A6969&amp;tr=udp%3A%2F%2Fexodus.desync.com%3A6969","seeders":11,"leechers":1,"uploader":"SS132203","files":4,"time":1439789034,"description":"Straight Outta Compton 2015 CAM XviD-INFERNO\n &lt;a href=&quot;\nhttp://imgsparrow.co/image/lB&quot; rel=&quot;nofollow&quot; target=&quot;_NEW&quot;&gt;\nhttp://imgsparrow.co/image/lB&lt;/a&gt;\n &lt;a href=&quot;\nhttp://imgsparrow.co/image/9b&quot; rel=&quot;nofollow&quot; target=&quot;_NEW&quot;&gt;\nhttp://imgsparrow.co/image/9b&lt;/a&gt;\n\nInfo : - \n\nThank INFERNO Not ME!\n\nSource: MRG...THANKS\n &lt;a href=&quot;\nhttp://www.imdb.com/title/tt1398426/&quot; rel=&quot;nofollow&quot; target=&quot;_NEW&quot;&gt;\nhttp://www.imdb.com/title/tt1398426/&lt;/a&gt;\n\nFormat : AVI\n\nFormat/Info : Audio Video Interleave\n\nFile size : 1.62 GiB\n\nDuration : 2h 21mn\n\nOverall bit rate : 1 637 Kbps\n\nWriting library : VirtualDub build 35491/release\n\nVideo\n\nID : 0\n\nFormat : MPEG-4 Visual\n\nFormat profile : Advanced Simple@L5\n\nFormat settings, BVOP : Yes\n\nFormat settings, QPel : No\n\nFormat settings, GMC : No warppoints\n\nFormat settings, Matrix : Default (H.263)\n\nMuxing mode : Packed bitstream\n\nCodec ID : XVID\n\nCodec ID/Hint : XviD\n\nDuration : 2h 21mn\n\nBit rate : 1 499 Kbps\n\nWidth : 720 pixels\n\nHeight : 288 pixels\n\nDisplay aspect ratio : 2.500\n\nFrame rate : 25.000 fps\n\nColor space : YUV\n\nChroma subsampling : 4:2:0\n\nBit depth : 8 bits\n\nScan type : Progressive\n\nBits/(Pixel*Frame) : 0.289\n\nStream size : 1.48 GiB (92%)\n\nWriting library : XviD 1.2.1 (UTC 2008-12-04)\n\nAudio\n\nID : 1\n\nFormat : MPEG Audio\n\nFormat version : Version 1\n\nFormat profile : Layer 3\n\nMode : Joint stereo\n\nMode extension : MS Stereo\n\nCodec ID : 55\n\nCodec ID/Hint : MP3\n\nDuration : 2h 21mn\n\nBit rate mode : Constant\n\nBit rate : 128 Kbps\n\nChannel(s) : 2 channels\n\nSampling rate : 44.1 KHz\n\nStream size : 130 MiB (8%)\n\nAlignment : Split accross interleaves\n\nInterleave, duration : 40 ms (1.00 video frame)\n\nInterleave, preload duration : 500 ms\n\nWORKDONE:\n\nAdj. perspective, contrast, levels, RGB's, msu denoiser, sharpen. Audio a little here and there to what I thought sound better.\n\nScreens : - \n &lt;a href=&quot;\nhttp://imgsparrow.co/image/8bx&quot; rel=&quot;nofollow&quot; target=&quot;_NEW&quot;&gt;\nhttp://imgsparrow.co/image/8bx&lt;/a&gt; &lt;a href=&quot;\nhttp://imgsparrow.co/image/8bC&quot; rel=&quot;nofollow&quot; target=&quot;_NEW&quot;&gt;\nhttp://imgsparrow.co/image/8bC&lt;/a&gt; &lt;a href=&quot;\nhttp://imgsparrow.co/image/8b1&quot; rel=&quot;nofollow&quot; target=&quot;_NEW&quot;&gt;\nhttp://imgsparrow.co/image/8b1&lt;/a&gt; &lt;a href=&quot;\nhttp://imgsparrow.co/image/8h6&quot; rel=&quot;nofollow&quot; target=&quot;_NEW&quot;&gt;\nhttp://imgsparrow.co/image/8h6&lt;/a&gt; &lt;a href=&quot;\nhttp://imgsparrow.co/image/8h8&quot; rel=&quot;nofollow&quot; target=&quot;_NEW&quot;&gt;\nhttp://imgsparrow.co/image/8h8&lt;/a&gt; &lt;a href=&quot;\nhttp://imgsparrow.co/image/8h9&quot; rel=&quot;nofollow&quot; target=&quot;_NEW&quot;&gt;\nhttp://imgsparrow.co/image/8h9&lt;/a&gt;\n &lt;a href=&quot;\nhttp://imgsparrow.co/image/N2&quot; rel=&quot;nofollow&quot; target=&quot;_NEW&quot;&gt;\nhttp://imgsparrow.co/image/N2&lt;/a&gt;","torrent":{"xt":"urn:btih:d9f97b954a8a77ae7929e57899a86046384b04da","amp;dn":"Straight+Outta+Compton+2015+CAM+XviD-INFERNO","amp;tr":["udp%3A%2F%2Ftracker.openbittorrent.com%3A80","udp%3A%2F%2Fopen.demonii.com%3A1337","udp%3A%2F%2Ftracker.coppersurfer.tk%3A6969","udp%3A%2F%2Fexodus.desync.com%3A6969"],"infoHash":"d9f97b954a8a77ae7929e57899a86046384b04da","infoHashBuffer":{"type":"Buffer","data":[217,249,123,149,74,138,119,174,121,41,229,120,153,168,96,70,56,75,4,218]},"announce":[],"urlList":[]}}